# xmcd
#
# Track frame offsets:
# 150
# 12634
# 28287
# 45423
# 64815
# 85551
# 109667
# 129578
# 140133
# 160973
# 183892
#
# Disc length: 2680 seconds
#
#
# Revision: 0
# Processed by: cddbd v1.5.1PL0 Copyright (c) Steve Scherf et al.
# Submitted via: FreeRIP 2.941 
#
DISCID=930a760b
DTITLE=Texas Storm - Old Dogs and Outlaws
DYEAR=1900
DGENRE=Country
TTITLE0=Truck driving man
TTITLE1=Della and the dealer
TTITLE2=Help me make it through the night
TTITLE3=Six days on the road
TTITLE4=Country Roads
TTITLE5=Some gave all
TTITLE6=Johnny Cash medley
TTITLE7=Old dogs
TTITLE8=Ft. Worth Blues
TTITLE9=Ride Forever
TTITLE10=Bill's laundromat bar and grill
EXTD=
EXTT0=
EXTT1=
EXTT2=
EXTT3=
EXTT4=
EXTT5=
EXTT6=
EXTT7=
EXTT8=
EXTT9=
EXTT10=
PLAYORDER=
